<?xml version="1.0" encoding="UTF-8" standalone="no"?>
<!-- Created with Inkscape (http://www.inkscape.org/) -->

<svg
   xmlns:dc="http://purl.org/dc/elements/1.1/"
   xmlns:cc="http://creativecommons.org/ns#"
   xmlns:rdf="http://www.w3.org/1999/02/22-rdf-syntax-ns#"
   xmlns:svg="http://www.w3.org/2000/svg"
   xmlns="http://www.w3.org/2000/svg"
   xmlns:sodipodi="http://sodipodi.sourceforge.net/DTD/sodipodi-0.dtd"
   xmlns:inkscape="http://www.inkscape.org/namespaces/inkscape"
   version="1.1"
   id="svg104"
   width="312"
   height="244"
   viewBox="0 0 312 244"
   sodipodi:docname="reduxLogo.svg"
   inkscape:version="0.92.3 (3ce5693, 2018-03-11)">
  <metadata
     id="metadata110">
    <rdf:RDF>
      <cc:Work
         rdf:about="">
        <dc:format>image/svg+xml</dc:format>
        <dc:type
           rdf:resource="http://purl.org/dc/dcmitype/StillImage" />
        <dc:title></dc:title>
      </cc:Work>
    </rdf:RDF>
  </metadata>
  <defs
     id="defs108" />
  <sodipodi:namedview
     pagecolor="#ffffff"
     bordercolor="#666666"
     borderopacity="1"
     objecttolerance="10"
     gridtolerance="10"
     guidetolerance="10"
     inkscape:pageopacity="0"
     inkscape:pageshadow="2"
     inkscape:window-width="911"
     inkscape:window-height="778"
     id="namedview106"
     showgrid="false"
     inkscape:zoom="1.8141026"
     inkscape:cx="156"
     inkscape:cy="122"
     inkscape:window-x="811"
     inkscape:window-y="136"
     inkscape:window-maximized="0"
     inkscape:current-layer="svg104" />
  <path
     inkscape:connector-curvature="0"
     id="path3833"
     d="M -0.55123675,122.55123 V 0.55123467 H 155.44876 h 156 V 122.55123 v 122 h -156 -155.99999675 z"
     style="fill:#fefefe" />
  <path
     inkscape:connector-curvature="0"
     id="path3831"
     d="m 118.94876,223.13959 c -8.00265,-3.55681 -11.91156,-14.02424 -8.03592,-21.5189 7.14786,-13.82244 27.53592,-10.4325 27.53592,4.57842 v 4.35212 h -9.5 c -5.225,0 -9.5,0.34987 -9.5,0.77749 0,0.42763 0.70052,1.77763 1.5567,3 1.76144,2.51481 5.07475,2.84684 10.13797,1.01596 2.98931,-1.08095 3.5627,-0.98053 5.50793,0.9647 2.11302,2.11303 2.12199,2.2257 0.33442,4.20094 -3.42729,3.78712 -12.46707,5.10485 -18.03702,2.62927 z m 10.5,-20.05318 c 0,-1.98037 -3.61771,-3.79129 -6.03883,-3.02285 -1.07981,0.34271 -2.42865,1.49264 -2.99742,2.55539 -0.95839,1.79079 -0.66541,1.93228 4.00107,1.93228 3.7553,0 5.03518,-0.37234 5.03518,-1.46482 z m 17.23221,20.28881 c -6.4965,-3.28147 -8.95177,-16.68758 -4.40395,-24.04611 3.40876,-5.51548 10.59878,-8.22526 15.23748,-5.7427 1.82715,0.97786 1.93426,0.64561 1.93426,-6 v -7.03518 h 5 5 v 21.5 21.5 h -4.03138 c -2.71109,0 -4.22533,-0.5054 -4.62356,-1.54317 -0.52822,-1.37653 -0.78642,-1.36738 -2.391,0.0847 -2.28426,2.06723 -8.76454,2.77619 -11.72185,1.28242 z m 11.69533,-8.23668 c 0.70512,-0.84962 1.05286,-3.9386 0.87244,-7.75 -0.29327,-6.19547 -0.36602,-6.34483 -3.25067,-6.6731 -1.96306,-0.22339 -3.38557,0.25896 -4.25,1.44113 -1.63294,2.23318 -1.70337,11.5906 -0.0993,13.19466 1.63003,1.63003 5.29436,1.51418 6.72754,-0.21269 z m 18.47246,6.01269 -3.4,-3.4 v -12.1 -12.1 h 5 5 v 11.03138 c 0,11.94357 0.42306,12.83221 5.50224,11.55741 2.47398,-0.62093 2.49776,-0.73144 2.49776,-11.60784 v -10.98095 h 5 5 v 15 15 h -3.94098 c -2.16754,0 -4.21808,-0.44835 -4.55675,-0.99633 -0.3884,-0.62844 -1.68424,-0.44381 -3.50936,0.5 -4.85253,2.50933 -8.77248,1.91676 -12.59291,-1.90367 z m 26.05872,2.33321 c -0.20225,-0.32726 1.11276,-2.80861 2.92226,-5.51411 7.41488,-11.08652 7.17697,-9.23617 2.11231,-16.42862 -2.47131,-3.50958 -4.49329,-6.74317 -4.49329,-7.18576 0,-0.4426 2.3625,-0.80289 5.25,-0.80065 5.20075,0.004 5.27461,0.0476 7.87337,4.64416 l 2.62336,4.64008 2.72166,-4.64415 c 2.65148,-4.52441 2.84813,-4.64416 7.62663,-4.64416 2.69774,0 4.90498,0.27477 4.90498,0.6106 0,0.33583 -2.04102,3.53031 -4.5356,7.09884 l -4.53561,6.48824 4.92834,7.65116 c 2.71059,4.20814 4.7947,7.87616 4.63136,8.15116 -0.16334,0.275 -2.62897,0.34145 -5.47917,0.14766 -4.9195,-0.33448 -5.31684,-0.57527 -7.83847,-4.75 -1.46096,-2.41871 -2.88456,-4.38344 -3.16357,-4.36605 -0.279,0.0174 -1.69688,1.99326 -3.15084,4.39084 -2.43239,4.011 -3.01848,4.38905 -7.33678,4.7325 -2.58126,0.20529 -4.85869,0.10551 -5.06094,-0.22174 z M 76.895013,222.27176 c -0.270039,-0.70371 -0.368416,-10.04121 -0.218615,-20.75 l 0.272365,-19.47053 9.5,-0.3112 c 11.333025,-0.37124 15.971487,0.80017 19.426297,4.90599 4.23911,5.03788 2.8809,15.06488 -2.42527,17.90466 -1.88588,1.00929 -1.75377,1.41934 2.82855,8.77964 2.64375,4.2465 5.15411,8.30593 5.57857,9.02096 0.60698,1.0225 -0.5736,1.23599 -5.52971,1 l -6.30146,-0.30005 -4.110362,-7 c -2.804232,-4.77564 -4.802499,-7.10154 -6.28849,-7.31955 -2.073811,-0.30425 -2.178125,0.043 -2.178125,7.25 v 7.56955 h -5.031385 c -3.164431,0 -5.213568,-0.47476 -5.522365,-1.27947 z m 19.997046,-23.94304 c 3.225211,-4.60463 0.56376,-8.77749 -5.598284,-8.77749 h -3.845012 v 5.5 5.5 h 3.943296 c 2.941272,0 4.338867,-0.56476 5.5,-2.22251 z m 11.678131,-27.84716 c -14.096637,-2.49217 -26.057521,-12.21829 -30.15028,-24.51703 -1.81174,-5.44428 -2.129126,-8.25569 -1.794843,-15.89878 0.363702,-8.31575 0.80539,-10.09289 4.231345,-17.02484 2.626551,-5.31446 5.941492,-9.89423 10.578521,-14.61477 3.714298,-3.781198 7.235739,-6.874906 7.825425,-6.874906 0.589685,0 1.697712,2.1375 2.462292,4.75 l 1.39014,4.749996 -5.862013,6.19469 c -3.227011,3.41015 -7.062573,8.80421 -8.532856,12 -7.629946,16.58439 0.398616,34.95507 17.441759,39.90965 7.50476,2.18169 21.60788,1.50341 29.7074,-1.42875 14.6476,-5.30269 29.76866,-16.71335 37.50964,-28.30557 3.75357,-5.62101 3.94069,-6.21946 2.56076,-8.18959 -0.8188,-1.16899 -1.48872,-4.09531 -1.48872,-6.50294 0,-3.64499 0.56893,-4.94642 3.4,-7.77749 2.77038,-2.77038 4.16576,-3.4 7.53518,-3.4 12.7602,0 16.63232,16.48218 5.08101,21.62799 -2.55516,1.13826 -4.4686,3.24804 -7.00081,7.71919 -4.31035,7.6108 -18.55702,22.00454 -26.23659,26.50743 -15.64877,9.17561 -34.77687,13.52967 -48.65736,11.07572 z m 70.17757,-0.92778 c -3.96055,-1.03803 -8.35146,-2.49011 -9.75757,-3.22685 l -2.55657,-1.33952 4.53376,-3.78976 4.53377,-3.78975 5.2238,1.82066 c 3.63851,1.26814 8.10684,1.81951 14.72381,1.81686 8.3561,-0.003 10.10205,-0.3236 14.5,-2.6597 26.69328,-14.17895 18.20069,-49.69281 -15.98396,-66.840911 -9.85309,-4.942619 -21.59074,-7.993575 -30.75293,-7.993575 -6.27861,0 -7.18117,0.264216 -9.77994,2.862981 -3.54007,3.540074 -8.05958,4.5555 -12.29536,2.762472 -5.15714,-2.18305 -7.18781,-5.184907 -7.18781,-10.625453 0,-5.488515 2.03175,-8.443391 7.35359,-10.694719 4.05517,-1.715479 8.12417,-0.982003 11.40137,2.055204 1.99685,1.850615 4.40965,2.444411 13.99052,3.443102 17.7308,1.848222 30.0308,6.310264 43.26847,15.696401 10.74049,7.61552 19.74321,19.093418 23.45728,29.906558 1.46232,4.25738 2.02877,8.47074 2.02877,15.09028 0,8.24567 -0.31292,9.80993 -3.06352,15.31438 -8.68312,17.37646 -31.54344,25.98202 -53.63748,20.19134 z m -53.87869,-30.88802 c -3.92804,-2.39531 -5.85762,-6.97828 -5.054,-12.00382 0.50892,-3.18266 -0.0731,-5.34772 -3.29034,-12.2387 -5.49715,-11.77447 -7.13346,-18.596248 -7.77237,-32.402955 -0.47212,-10.202376 -0.23329,-13.318151 1.5714,-20.5 4.5035,-17.921939 13.37256,-30.015839 26.92603,-36.716487 7.17362,-3.546537 8.11575,-3.752564 17.15984,-3.752564 8.78874,0 10.11256,0.267122 16.226,3.274113 12.62483,6.209719 21.95115,19.826225 25.36914,37.039163 0.90792,4.572302 1.47535,8.488694 1.26095,8.703093 -0.2144,0.2144 -2.66739,-0.277835 -5.4511,-1.093855 l -5.06129,-1.483672 -1.25255,-5.719421 c -2.6876,-12.272172 -9.61784,-23.116063 -17.87564,-27.970412 -4.00579,-2.354802 -5.76235,-2.745337 -12.24942,-2.723404 -13.73422,0.04644 -24.18804,7.135521 -31.03733,21.047448 -7.85035,15.945222 -7.25292,40.928549 1.39718,58.426943 2.99049,6.0495 3.49761,6.55406 7.317,7.27994 5.1447,0.97776 8.40567,4.37187 9.088,9.45902 1.32592,9.88547 -8.78955,16.54785 -17.2715,11.37557 z"
     style="fill:#c7b5e3" />
  <path
     inkscape:connector-curvature="0"
     id="path3829"
     d="m 119.94876,223.34752 c -9.14473,-3.18789 -13.14936,-15.22807 -7.8475,-23.59403 3.4715,-5.47779 13.34482,-7.98313 19.82501,-5.03055 3.80227,1.73242 6.70781,7.02869 6.33472,11.54701 l -0.31223,3.78128 -9.25,0.28753 c -9.75481,0.30321 -11.16514,1.16932 -7.42126,4.55748 2.15434,1.94965 6.99438,2.14833 10.74168,0.44095 2.3811,-1.0849 2.87413,-0.95518 4.63509,1.2195 1.96773,2.43005 1.96744,2.43607 -0.1975,4.18914 -2.35856,1.90984 -8.32132,3.83778 -11.50801,3.72088 -1.1,-0.0404 -3.35,-0.54399 -5,-1.11919 z m 9.25737,-21.04629 c -1.89992,-2.87563 -5.3839,-3.39796 -7.83984,-1.17537 -3.03853,2.74984 -2.30796,3.42537 3.70444,3.42537 5.60399,0 5.61722,-0.007 4.1354,-2.25 z m 18.27265,20.97069 c -6.97063,-3.52718 -9.5844,-16.58986 -4.76682,-23.82281 3.2267,-4.84446 8.95442,-7.47356 13.34567,-6.12585 l 3.39113,1.04077 v -6.9064 -6.9064 h 5 5 v 21.5 21.5 h -3.89301 c -2.44463,0 -4.0962,-0.52951 -4.43915,-1.42322 -0.45489,-1.18542 -1.17645,-1.10188 -4.31843,0.5 -4.39675,2.24159 -5.94989,2.3489 -9.31939,0.64391 z m 10.38819,-7.32768 c 1.24185,-0.47654 1.58179,-2.17075 1.58179,-7.88337 0,-6.68317 -0.1816,-7.32387 -2.22758,-7.8589 -5.27804,-1.38024 -8.73624,5.27473 -6.65598,12.8088 0.99584,3.60664 3.21949,4.49999 7.30177,2.93347 z m 21.34436,7.0416 c -4.6335,-2.51411 -5.76257,-6.11632 -5.76257,-18.38495 v -11.04966 h 4.96725 4.96725 l 0.28275,11.25 0.28275,11.25 h 3.5 3.5 l 0.5,-11 0.5,-11 4.75,-0.30479 4.75,-0.30479 v 15.05479 15.05479 h -3.91667 c -2.15416,0 -4.0737,-0.4711 -4.26563,-1.0469 -0.2255,-0.67651 -1.6588,-0.49961 -4.05121,0.5 -4.54341,1.89836 -6.47777,1.89478 -10.00392,-0.0185 z M 77.448763,202.55123 v -21 h 9.13398 c 15.723477,0 21.866017,3.56607 21.866017,12.69437 0,3.93874 -0.51305,5.05397 -3.8688,8.40972 -2.9216,2.9216 -3.56857,4.11797 -2.64252,4.88652 0.67446,0.55974 3.30793,4.39084 5.85218,8.51355 l 4.62589,7.49584 h -5.96488 -5.96488 l -4.26849,-7.48938 c -3.317625,-5.82101 -4.769718,-7.49175 -6.518497,-7.5 -2.134277,-0.0101 -2.25,0.37512 -2.25,7.48938 v 7.5 h -5 -5 z m 16.664548,-2.06256 c 3.253588,-1.23701 4.298911,-2.59589 4.320139,-5.61601 0.02323,-3.30445 -2.651253,-5.32143 -7.056116,-5.32143 h -3.928571 v 6 c 0,6.60496 0.772786,7.17748 6.664548,4.93744 z m 113.304979,15.60772 c 2.76676,-4.10016 5.03047,-7.6786 5.03047,-7.95209 0,-0.27349 -2.025,-3.39404 -4.5,-6.93456 -2.475,-3.54052 -4.5,-6.71208 -4.5,-7.04791 0,-0.33583 2.26108,-0.6106 5.02462,-0.6106 4.88575,0 5.09974,0.12436 7.74272,4.5 1.49495,2.475 2.94715,4.5 3.2271,4.5 0.27994,0 1.58325,-2.025 2.89624,-4.5 2.32824,-4.38878 2.50738,-4.5 7.24828,-4.5 2.67357,0 4.86104,0.20344 4.86104,0.45209 0,0.24865 -2.04905,3.38329 -4.55345,6.96586 -5.14234,7.35618 -5.22954,6.51384 1.74262,16.83205 l 3.88535,5.75 h -5.51703 -5.51703 l -2.89357,-5.06645 -2.89357,-5.06645 -3.11742,5.06645 c -3.08023,5.00602 -3.17753,5.06645 -8.15713,5.06645 h -5.03972 z m -23.46953,-45.62747 c -6.37186,-1.08132 -15.80261,-4.28885 -16.15155,-5.49336 -0.14727,-0.50838 1.56856,-2.32269 3.81296,-4.03179 l 4.08072,-3.10746 6.12893,1.93799 c 8.40925,2.65903 22.22635,2.13429 28.4202,-1.07934 6.25164,-3.2436 11.80791,-9.46412 14.26422,-15.96948 3.0137,-7.98157 2.26062,-15.12177 -2.64373,-25.06611 -9.09989,-18.451465 -30.30016,-31.607469 -55.41175,-34.386207 l -9.5,-1.051228 -3.65,3.664649 c -3.04505,3.057268 -4.34539,3.66465 -7.84563,3.66465 -5.27817,0 -9.47472,-2.865119 -11.00992,-7.516827 -3.61891,-10.965384 9.55469,-19.20799 18.35277,-11.483173 3.06491,2.691024 4.10275,3 10.07695,3 30.91605,0 62.84538,21.323259 70.71236,47.223596 2.78855,9.18069 2.36196,21.19828 -0.99556,28.04629 -5.09832,10.39854 -18.74456,19.61241 -32.14097,21.70141 -7.36501,1.14848 -9.45648,1.14168 -16.5,-0.0536 z M 102.8074,168.49214 C 90.075673,164.4563 82.015479,156.51978 78.331797,144.39206 c -3.669651,-12.08153 -1.606436,-25.11629 5.810892,-36.71144 3.209753,-5.01765 13.824603,-16.129386 15.408124,-16.129386 0.38416,0 1.208617,2.1375 1.832137,4.75 l 1.13367,4.749996 -5.473774,5.77738 c -3.010577,3.17756 -6.738346,8.35256 -8.28393,11.5 -2.37749,4.84154 -2.807176,6.95433 -2.79082,13.72262 0.01618,6.69411 0.452396,8.82654 2.672316,13.06346 6.51274,12.43014 19.491328,17.89254 36.710148,15.45047 17.77681,-2.52121 38.75178,-16.21863 48.87044,-31.91419 3.3776,-5.23916 3.43292,-5.48242 1.85461,-8.15429 -4.451,-7.53494 1.29022,-16.94545 10.33818,-16.94545 2.09122,0 4.24331,1.08045 6.77693,3.40233 3.07538,2.81838 3.71259,4.07623 3.71259,7.32867 0,4.8284 -2.69555,9.15624 -6.62717,10.64026 -1.91261,0.72193 -3.97833,2.88875 -5.83735,6.12303 -7.7337,13.45491 -19.02148,23.92996 -33.49003,31.07871 -16.77616,8.28891 -34.63079,10.65064 -48.14136,6.36791 z m 24.64136,-28.59877 c -5.37621,-2.12059 -9.07222,-9.2877 -7.28067,-14.11831 0.64189,-1.73075 -0.0538,-4.15429 -2.90334,-10.11405 -6.34749,-13.2757 -8.24821,-21.686608 -8.27317,-36.609776 -0.0182,-10.865515 0.36189,-14.227292 2.31478,-20.474777 4.43793,-14.197448 9.99297,-22.710878 19.27977,-29.54743 24.90103,-18.331097 55.73255,-4.782374 64.29291,28.253135 1.56108,6.024405 2.07644,12.269072 1.01254,12.269072 -0.30645,0 -2.5038,-0.490165 -4.88301,-1.089256 -4.21601,-1.061603 -4.34215,-1.212307 -4.96878,-5.936078 -0.99186,-7.47699 -7.76398,-20.045737 -13.65417,-25.34153 -6.26679,-5.63438 -10.34891,-7.015488 -18.92245,-6.402054 -22.34103,1.598492 -36.15428,22.211703 -34.69118,51.768918 0.56226,11.358741 2.12282,17.746406 6.90174,28.249996 2.26448,4.97712 3.58349,6.75 5.02194,6.75 6.60314,0 12.55927,6.88917 11.38193,13.16493 -1.17073,6.24049 -9.24013,11.30272 -14.62884,9.17721 z"
     style="fill:#af96d7" />
  <path
     inkscape:connector-curvature="0"
     id="path3827"
     d="m 119.94876,223.34752 c -9.14473,-3.18789 -13.14936,-15.22807 -7.8475,-23.59403 3.4715,-5.47779 13.34482,-7.98313 19.82501,-5.03055 3.80227,1.73242 6.70781,7.02869 6.33472,11.54701 l -0.31223,3.78128 -9.25,0.28753 c -9.75481,0.30321 -11.16514,1.16932 -7.42126,4.55748 2.15434,1.94965 6.99438,2.14833 10.74168,0.44095 2.3811,-1.0849 2.87413,-0.95518 4.63509,1.2195 1.96773,2.43005 1.96744,2.43607 -0.1975,4.18914 -2.35856,1.90984 -8.32132,3.83778 -11.50801,3.72088 -1.1,-0.0404 -3.35,-0.54399 -5,-1.11919 z m 9.25737,-21.04629 c -1.89992,-2.87563 -5.3839,-3.39796 -7.83984,-1.17537 -3.03853,2.74984 -2.30796,3.42537 3.70444,3.42537 5.60399,0 5.61722,-0.007 4.1354,-2.25 z m 18.27265,20.97069 c -6.97063,-3.52718 -9.5844,-16.58986 -4.76682,-23.82281 3.2267,-4.84446 8.95442,-7.47356 13.34567,-6.12585 l 3.39113,1.04077 v -6.9064 -6.9064 h 5 5 v 21.5 21.5 h -3.89301 c -2.44463,0 -4.0962,-0.52951 -4.43915,-1.42322 -0.45489,-1.18542 -1.17645,-1.10188 -4.31843,0.5 -4.39675,2.24159 -5.94989,2.3489 -9.31939,0.64391 z m 10.38819,-7.32768 c 1.24185,-0.47654 1.58179,-2.17075 1.58179,-7.88337 0,-6.68317 -0.1816,-7.32387 -2.22758,-7.8589 -5.27804,-1.38024 -8.73624,5.27473 -6.65598,12.8088 0.99584,3.60664 3.21949,4.49999 7.30177,2.93347 z m 21.34436,7.0416 c -4.6335,-2.51411 -5.76257,-6.11632 -5.76257,-18.38495 v -11.04966 h 4.96725 4.96725 l 0.28275,11.25 0.28275,11.25 h 3.5 3.5 l 0.5,-11 0.5,-11 4.75,-0.30479 4.75,-0.30479 v 15.05479 15.05479 h -3.91667 c -2.15416,0 -4.0737,-0.4711 -4.26563,-1.0469 -0.2255,-0.67651 -1.6588,-0.49961 -4.05121,0.5 -4.54341,1.89836 -6.47777,1.89478 -10.00392,-0.0185 z M 77.448763,202.55123 v -21 h 9.13398 c 15.723477,0 21.866017,3.56607 21.866017,12.69437 0,3.93874 -0.51305,5.05397 -3.8688,8.40972 -2.9216,2.9216 -3.56857,4.11797 -2.64252,4.88652 0.67446,0.55974 3.30793,4.39084 5.85218,8.51355 l 4.62589,7.49584 h -5.96488 -5.96488 l -4.26849,-7.48938 c -3.317625,-5.82101 -4.769718,-7.49175 -6.518497,-7.5 -2.134277,-0.0101 -2.25,0.37512 -2.25,7.48938 v 7.5 h -5 -5 z m 16.664548,-2.06256 c 3.253588,-1.23701 4.298911,-2.59589 4.320139,-5.61601 0.02323,-3.30445 -2.651253,-5.32143 -7.056116,-5.32143 h -3.928571 v 6 c 0,6.60496 0.772786,7.17748 6.664548,4.93744 z m 113.304979,15.60772 c 2.76676,-4.10016 5.03047,-7.6786 5.03047,-7.95209 0,-0.27349 -2.025,-3.39404 -4.5,-6.93456 -2.475,-3.54052 -4.5,-6.71208 -4.5,-7.04791 0,-0.33583 2.26108,-0.6106 5.02462,-0.6106 4.88575,0 5.09974,0.12436 7.74272,4.5 1.49495,2.475 2.94715,4.5 3.2271,4.5 0.27994,0 1.58325,-2.025 2.89624,-4.5 2.32824,-4.38878 2.50738,-4.5 7.24828,-4.5 2.67357,0 4.86104,0.20344 4.86104,0.45209 0,0.24865 -2.04905,3.38329 -4.55345,6.96586 -5.14234,7.35618 -5.22954,6.51384 1.74262,16.83205 l 3.88535,5.75 h -5.51703 -5.51703 l -2.89357,-5.06645 -2.89357,-5.06645 -3.11742,5.06645 c -3.08023,5.00602 -3.17753,5.06645 -8.15713,5.06645 h -5.03972 z M 105.26166,169.08147 C 89.124818,164.63704 80.269174,155.16155 77.326482,139.19099 74.730077,125.09979 79.909451,111.01445 92.27028,98.551234 l 7.438383,-7.5 1.312087,4.928947 1.31209,4.928939 -5.468631,5.90678 c -3.007749,3.24873 -6.690023,8.2307 -8.182832,11.07105 -2.367985,4.50554 -2.714458,6.31229 -2.716235,14.16428 -0.0017,7.36337 0.398792,9.75184 2.202168,13.13445 3.118534,5.84947 7.8913,10.28851 14.27536,13.27718 4.77572,2.23573 6.83257,2.57583 15.50609,2.5639 11.38882,-0.0157 16.79559,-1.46339 28.32402,-7.58407 13.13418,-6.97321 21.22463,-14.20628 28.66224,-25.62479 2.68504,-4.12217 2.71486,-4.32307 1.13559,-7.65113 -2.12851,-4.48551 -2.04202,-7.41418 0.33406,-11.31107 2.56087,-4.19994 8.52792,-6.17513 13.0262,-4.31188 4.53281,1.87755 7.01789,5.56725 7.01789,10.41976 0,5.02429 -2.14291,8.33159 -6.60679,10.19672 -1.95841,0.81827 -4.02265,2.7438 -4.97893,4.64436 -3.37895,6.71552 -12.96994,18.06711 -19.74172,23.36567 -17.61844,13.78547 -43.04169,20.54316 -59.85966,15.91114 z m 73.1871,0.0179 c -2.475,-0.70017 -6.03551,-1.91429 -7.91225,-2.69805 l -3.41225,-1.42502 4.20676,-3.33182 4.20677,-3.33182 6.20548,1.77351 c 7.79204,2.22695 19.69561,2.25948 25.61859,0.07 6.9396,-2.56526 12.59005,-7.85027 16.17185,-15.12594 2.87955,-5.84919 3.13791,-7.1201 2.69785,-13.27065 -1.1203,-15.65762 -13.56582,-31.49308 -31.7828,-40.439863 -11.1001,-5.451519 -19.04838,-7.657541 -30.50246,-8.465867 -7.72956,-0.545483 -8.35188,-0.443292 -9.41668,1.5463 -2.53363,4.73412 -10.57795,6.569435 -15.10835,3.446975 -3.96661,-2.733876 -4.9083,-4.513676 -4.91847,-9.295891 -0.014,-6.602522 4.24164,-11.004743 10.63022,-10.996262 2.9231,0.0039 9.31574,3.318933 9.31574,4.830893 0,0.475216 4.6125,1.131761 10.25,1.45899 12.53083,0.727353 25.14803,4.215699 36.25,10.022232 5.95873,3.116527 10.30357,6.480572 17.028,13.184147 13.3956,13.354046 18.33734,24.875216 17.188,40.072106 -0.67732,8.95566 -3.76916,15.33316 -10.47416,21.60491 -8.97884,8.39865 -18.65028,11.87183 -32.67334,11.73356 -4.98768,-0.0492 -11.0935,-0.66228 -13.5685,-1.36244 z m -52,-30.27514 c -4.70489,-2.38336 -7.58591,-8.15349 -6.14082,-12.29888 0.9071,-2.60213 0.5324,-4.05402 -2.89855,-11.23129 -5.98991,-12.5304 -8.21232,-22.127243 -8.27724,-35.742826 -0.0921,-19.313023 5.2763,-34.742295 15.7227,-45.188697 13.68184,-13.68184 31.82548,-17.193035 46.8426,-9.065078 6.72708,3.641 15.26663,12.993497 18.84374,20.637604 3.09027,6.603743 6.86717,21.989904 5.68753,23.169548 -0.36023,0.360226 -2.53897,0.02695 -4.84165,-0.740606 -4.10958,-1.369859 -4.22068,-1.52942 -6.03241,-8.663567 -3.40831,-13.421005 -11.36961,-24.251365 -20.34733,-27.679985 -10.24642,-3.913146 -27.39059,0.710698 -34.57839,9.325919 -4.0736,4.882574 -9.51116,16.376067 -10.88321,23.004083 -2.89544,13.987176 -0.62748,32.458331 5.69837,46.409675 2.67931,5.90909 3.29509,6.58548 6.55152,7.19639 8.01554,1.50373 12.52719,9.07001 9.22083,15.46381 -3.05378,5.90537 -9.12901,8.15897 -14.56769,5.4039 z"
     style="fill:#a5a5a5" />
  <path
     inkscape:connector-curvature="0"
     id="path3825"
     d="m 77.448763,202.44061 v -21.11063 l 10.75,0.36992 c 13.037067,0.44863 16.957607,2.1807 19.155087,8.46263 1.80777,5.16787 0.84259,8.97273 -3.24486,12.79166 l -3.19735,2.98729 5.26856,8.05385 c 2.89771,4.42962 5.26856,8.39182 5.26856,8.80488 0,0.41306 -2.18026,0.75102 -4.84501,0.75102 -5.50473,0 -6.20786,-0.58399 -11.015406,-9.149 -2.891587,-5.15158 -4.682878,-6.851 -7.221368,-6.851 -0.505017,0 -0.918213,3.6 -0.918213,8 v 8 h -5 -5 z m 18.777494,-2.44608 c 1.537992,-1.07726 2.222506,-2.5795 2.222506,-4.87756 0,-4.05717 -1.6857,-5.57977 -6.960781,-6.28731 l -4.039219,-0.54177 v 6.63167 6.63167 h 3.277494 c 1.802621,0 4.277621,-0.70052 5.5,-1.5567 z m 20.521053,21.59718 c -4.29058,-2.61611 -6.29933,-6.84141 -6.29481,-13.24082 0.006,-9.11029 5.64363,-14.80467 14.64739,-14.79592 7.45471,0.007 13.96455,6.86048 13.15535,13.84931 -0.30547,2.63821 -0.3387,2.6479 -10.06339,2.93325 l -9.75691,0.28629 1.5251,2.94922 c 1.9317,3.73551 5.51734,4.66314 10.48383,2.71225 3.68576,-1.44781 3.95454,-1.41655 5.93363,0.69009 l 2.07299,2.2066 -3.88702,2.18462 c -5.08374,2.85722 -13.3285,2.9614 -17.81616,0.22511 z M 130.1648,203.9173 c 0.57094,-1.73453 -2.57289,-4.36607 -5.21604,-4.36607 -2.65537,0 -5.5,2.3914 -5.5,4.62369 0,1.15584 1.13494,1.41449 5.1714,1.17857 2.84427,-0.16624 5.33936,-0.81253 5.54464,-1.43619 z m 15.40083,18.00324 c -7.01499,-4.9135 -6.77807,-20.55765 0.39681,-26.20141 2.9952,-2.35602 9.21716,-2.9175 12.55206,-1.13272 1.8334,0.98121 1.93426,0.63929 1.93426,-6.55749 v -7.59269 l 4.25,0.3075 4.25,0.3075 v 21 21 l -2.95069,0.33579 c -1.89744,0.21593 -3.38314,-0.25563 -4.16221,-1.32108 -1.1106,-1.51883 -1.46462,-1.52598 -4.24965,-0.0858 -3.92398,2.02917 -9.07489,2.00362 -12.02058,-0.0596 z m 12.66062,-5.92601 c 1.90351,-1.33327 2.22251,-2.47648 2.22251,-7.96482 0,-5.47971 -0.30325,-6.57041 -2.09314,-7.52833 -2.95208,-1.5799 -6.35969,-0.44648 -7.73542,2.57293 -1.86508,4.09339 -1.46035,10.18801 0.82856,12.47692 2.40692,2.40692 3.84018,2.50067 6.77749,0.4433 z m 18.9069,4.96836 c -3.07146,-3.07146 -3.9308,-7.72064 -3.49554,-18.91166 l 0.31115,-8 4.25,-0.3075 4.25,-0.3075 v 10.48607 c 0,8.19946 0.34267,10.82874 1.57143,12.0575 1.87878,1.87879 2.55604,1.9261 5.88152,0.41091 2.50258,-1.14025 2.54705,-1.35078 2.54705,-12.05749 v -10.89699 l 4.25,0.3075 4.25,0.3075 0.27673,14.75 0.27674,14.75 h -3.47705 c -2.18848,0 -3.81852,-0.61019 -4.39848,-1.64653 -0.85551,-1.52871 -1.08967,-1.52871 -3.2722,0 -3.71506,2.60213 -10.13471,2.14483 -13.22135,-0.94181 z m 26.31561,2.03347 c 0,-0.30518 1.81069,-3.22122 4.02375,-6.4801 2.21306,-3.25888 4.27488,-6.57967 4.58181,-7.37953 0.30694,-0.79986 -1.20038,-4.07131 -3.3496,-7.26989 -2.14922,-3.19859 -4.23759,-6.37811 -4.64083,-7.06561 -0.54582,-0.93059 0.53528,-1.25 4.23083,-1.25 4.8259,0 5.03736,0.12519 7.60117,4.5 1.45045,2.475 2.95899,4.5 3.35231,4.5 0.39332,0 1.93827,-2.025 3.43322,-4.5 2.58204,-4.27473 2.94566,-4.5 7.26378,-4.5 h 4.54569 l -4.52107,6.73932 c -2.48658,3.70663 -4.52106,7.19894 -4.52106,7.76068 0,0.56174 2.025,4.03992 4.5,7.72928 2.475,3.68936 4.5,6.97171 4.5,7.29411 0,0.32241 -2.1375,0.44904 -4.75,0.2814 -4.45537,-0.28588 -4.93608,-0.59828 -7.75,-5.03638 -1.65,-2.60237 -3.225,-4.73941 -3.5,-4.74898 -0.275,-0.01 -1.76346,2.23215 -3.30769,4.98159 -2.71113,4.82708 -2.96044,4.99898 -7.25,4.99898 -2.44327,0 -4.44231,-0.24969 -4.44231,-0.55487 z m -98.1871,-53.91489 C 89.124818,164.63704 80.269174,155.16155 77.326482,139.19099 74.730077,125.09979 79.909451,111.01445 92.27028,98.551234 l 7.438383,-7.5 1.312087,4.928947 1.31209,4.928939 -5.468631,5.90678 c -3.007749,3.24873 -6.690023,8.2307 -8.182832,11.07105 -2.367985,4.50554 -2.714458,6.31229 -2.716235,14.16428 -0.0017,7.36337 0.398792,9.75184 2.202168,13.13445 3.118534,5.84947 7.8913,10.28851 14.27536,13.27718 4.77572,2.23573 6.83257,2.57583 15.50609,2.5639 11.38882,-0.0157 16.79559,-1.46339 28.32402,-7.58407 13.13418,-6.97321 21.22463,-14.20628 28.66224,-25.62479 2.68504,-4.12217 2.71486,-4.32307 1.13559,-7.65113 -2.12851,-4.48551 -2.04202,-7.41418 0.33406,-11.31107 2.56087,-4.19994 8.52792,-6.17513 13.0262,-4.31188 4.53281,1.87755 7.01789,5.56725 7.01789,10.41976 0,5.02429 -2.14291,8.33159 -6.60679,10.19672 -1.95841,0.81827 -4.02265,2.7438 -4.97893,4.64436 -3.37895,6.71552 -12.96994,18.06711 -19.74172,23.36567 -17.61844,13.78547 -43.04169,20.54316 -59.85966,15.91114 z m 73.1871,0.0179 c -2.475,-0.70017 -6.03551,-1.91429 -7.91225,-2.69805 l -3.41225,-1.42502 4.20676,-3.33182 4.20677,-3.33182 6.20548,1.77351 c 7.79204,2.22695 19.69561,2.25948 25.61859,0.07 6.9396,-2.56526 12.59005,-7.85027 16.17185,-15.12594 2.87955,-5.84919 3.13791,-7.1201 2.69785,-13.27065 -1.1203,-15.65762 -13.56582,-31.49308 -31.7828,-40.439863 -11.1001,-5.451519 -19.04838,-7.657541 -30.50246,-8.465867 -7.72956,-0.545483 -8.35188,-0.443292 -9.41668,1.5463 -2.53363,4.73412 -10.57795,6.569435 -15.10835,3.446975 -3.96661,-2.733876 -4.9083,-4.513676 -4.91847,-9.295891 -0.014,-6.602522 4.24164,-11.004743 10.63022,-10.996262 2.9231,0.0039 9.31574,3.318933 9.31574,4.830893 0,0.475216 4.6125,1.131761 10.25,1.45899 12.53083,0.727353 25.14803,4.215699 36.25,10.022232 5.95873,3.116527 10.30357,6.480572 17.028,13.184147 13.3956,13.354046 18.33734,24.875216 17.188,40.072106 -0.67732,8.95566 -3.76916,15.33316 -10.47416,21.60491 -8.97884,8.39865 -18.65028,11.87183 -32.67334,11.73356 -4.98768,-0.0492 -11.0935,-0.66228 -13.5685,-1.36244 z m -52,-30.27514 c -4.70489,-2.38336 -7.58591,-8.15349 -6.14082,-12.29888 0.9071,-2.60213 0.5324,-4.05402 -2.89855,-11.23129 -5.98991,-12.5304 -8.21232,-22.127243 -8.27724,-35.742826 -0.0921,-19.313023 5.2763,-34.742295 15.7227,-45.188697 13.68184,-13.68184 31.82548,-17.193035 46.8426,-9.065078 6.72708,3.641 15.26663,12.993497 18.84374,20.637604 3.09027,6.603743 6.86717,21.989904 5.68753,23.169548 -0.36023,0.360226 -2.53897,0.02695 -4.84165,-0.740606 -4.10958,-1.369859 -4.22068,-1.52942 -6.03241,-8.663567 -3.40831,-13.421005 -11.36961,-24.251365 -20.34733,-27.679985 -10.24642,-3.913146 -27.39059,0.710698 -34.57839,9.325919 -4.0736,4.882574 -9.51116,16.376067 -10.88321,23.004083 -2.89544,13.987176 -0.62748,32.458331 5.69837,46.409675 2.67931,5.90909 3.29509,6.58548 6.55152,7.19639 8.01554,1.50373 12.52719,9.07001 9.22083,15.46381 -3.05378,5.90537 -9.12901,8.15897 -14.56769,5.4039 z"
     style="fill:#8d69c7" />
  <path
     inkscape:connector-curvature="0"
     id="path3823"
     d="m 77.448763,202.44061 v -21.11063 l 10.75,0.36992 c 13.037067,0.44863 16.957607,2.1807 19.155087,8.46263 1.80777,5.16787 0.84259,8.97273 -3.24486,12.79166 l -3.19735,2.98729 5.26856,8.05385 c 2.89771,4.42962 5.26856,8.39182 5.26856,8.80488 0,0.41306 -2.18026,0.75102 -4.84501,0.75102 -5.50473,0 -6.20786,-0.58399 -11.015406,-9.149 -2.891587,-5.15158 -4.682878,-6.851 -7.221368,-6.851 -0.505017,0 -0.918213,3.6 -0.918213,8 v 8 h -5 -5 z m 18.777494,-2.44608 c 1.537992,-1.07726 2.222506,-2.5795 2.222506,-4.87756 0,-4.05717 -1.6857,-5.57977 -6.960781,-6.28731 l -4.039219,-0.54177 v 6.63167 6.63167 h 3.277494 c 1.802621,0 4.277621,-0.70052 5.5,-1.5567 z m 20.521053,21.59718 c -4.29058,-2.61611 -6.29933,-6.84141 -6.29481,-13.24082 0.006,-9.11029 5.64363,-14.80467 14.64739,-14.79592 7.45471,0.007 13.96455,6.86048 13.15535,13.84931 -0.30547,2.63821 -0.3387,2.6479 -10.06339,2.93325 l -9.75691,0.28629 1.5251,2.94922 c 1.9317,3.73551 5.51734,4.66314 10.48383,2.71225 3.68576,-1.44781 3.95454,-1.41655 5.93363,0.69009 l 2.07299,2.2066 -3.88702,2.18462 c -5.08374,2.85722 -13.3285,2.9614 -17.81616,0.22511 z M 130.1648,203.9173 c 0.57094,-1.73453 -2.57289,-4.36607 -5.21604,-4.36607 -2.65537,0 -5.5,2.3914 -5.5,4.62369 0,1.15584 1.13494,1.41449 5.1714,1.17857 2.84427,-0.16624 5.33936,-0.81253 5.54464,-1.43619 z m 15.40083,18.00324 c -7.01499,-4.9135 -6.77807,-20.55765 0.39681,-26.20141 2.9952,-2.35602 9.21716,-2.9175 12.55206,-1.13272 1.8334,0.98121 1.93426,0.63929 1.93426,-6.55749 v -7.59269 l 4.25,0.3075 4.25,0.3075 v 21 21 l -2.95069,0.33579 c -1.89744,0.21593 -3.38314,-0.25563 -4.16221,-1.32108 -1.1106,-1.51883 -1.46462,-1.52598 -4.24965,-0.0858 -3.92398,2.02917 -9.07489,2.00362 -12.02058,-0.0596 z m 12.66062,-5.92601 c 1.90351,-1.33327 2.22251,-2.47648 2.22251,-7.96482 0,-5.47971 -0.30325,-6.57041 -2.09314,-7.52833 -2.95208,-1.5799 -6.35969,-0.44648 -7.73542,2.57293 -1.86508,4.09339 -1.46035,10.18801 0.82856,12.47692 2.40692,2.40692 3.84018,2.50067 6.77749,0.4433 z m 18.9069,4.96836 c -3.07146,-3.07146 -3.9308,-7.72064 -3.49554,-18.91166 l 0.31115,-8 4.25,-0.3075 4.25,-0.3075 v 10.48607 c 0,8.19946 0.34267,10.82874 1.57143,12.0575 1.87878,1.87879 2.55604,1.9261 5.88152,0.41091 2.50258,-1.14025 2.54705,-1.35078 2.54705,-12.05749 v -10.89699 l 4.25,0.3075 4.25,0.3075 0.27673,14.75 0.27674,14.75 h -3.47705 c -2.18848,0 -3.81852,-0.61019 -4.39848,-1.64653 -0.85551,-1.52871 -1.08967,-1.52871 -3.2722,0 -3.71506,2.60213 -10.13471,2.14483 -13.22135,-0.94181 z m 26.31561,2.03347 c 0,-0.30518 1.81069,-3.22122 4.02375,-6.4801 2.21306,-3.25888 4.27488,-6.57967 4.58181,-7.37953 0.30694,-0.79986 -1.20038,-4.07131 -3.3496,-7.26989 -2.14922,-3.19859 -4.23759,-6.37811 -4.64083,-7.06561 -0.54582,-0.93059 0.53528,-1.25 4.23083,-1.25 4.8259,0 5.03736,0.12519 7.60117,4.5 1.45045,2.475 2.95899,4.5 3.35231,4.5 0.39332,0 1.93827,-2.025 3.43322,-4.5 2.58204,-4.27473 2.94566,-4.5 7.26378,-4.5 h 4.54569 l -4.52107,6.73932 c -2.48658,3.70663 -4.52106,7.19894 -4.52106,7.76068 0,0.56174 2.025,4.03992 4.5,7.72928 2.475,3.68936 4.5,6.97171 4.5,7.29411 0,0.32241 -2.1375,0.44904 -4.75,0.2814 -4.45537,-0.28588 -4.93608,-0.59828 -7.75,-5.03638 -1.65,-2.60237 -3.225,-4.73941 -3.5,-4.74898 -0.275,-0.01 -1.76346,2.23215 -3.30769,4.98159 -2.71113,4.82708 -2.96044,4.99898 -7.25,4.99898 -2.44327,0 -4.44231,-0.24969 -4.44231,-0.55487 z m -97.2399,-53.93571 c -11.856303,-3.0126 -21.723368,-10.55336 -25.902541,-19.79566 -2.037824,-4.50667 -2.357556,-6.77339 -2.357556,-16.71376 0,-11.22048 0.0909,-11.69038 3.739872,-19.33246 2.669526,-5.59083 5.57656,-9.66916 10.157407,-14.25 3.529645,-3.529645 6.833388,-6.417536 7.341651,-6.417536 0.50826,0 1.381437,1.998522 1.940397,4.44116 1.0113,4.419416 0.99475,4.462246 -3.382138,8.749996 -6.265275,6.13767 -10.052422,12.49557 -11.898046,19.97456 -1.468313,5.95001 -1.468746,7.01398 -0.0052,12.72688 4.182532,16.32602 16.133414,24.02031 35.487254,22.84761 19.28359,-1.16843 40.97762,-14.15806 52.61353,-31.50312 l 4.22453,-6.2973 -1.87192,-3.7835 c -3.75849,-7.59664 1.0665,-15.15629 9.67362,-15.15629 6.13732,0 9.5055,3.05513 10.20443,9.25599 0.4901,4.34816 0.27156,4.94706 -2.99838,8.217 -1.93986,1.93986 -4.13451,3.53188 -4.87701,3.53784 -0.7425,0.006 -2.925,2.81846 -4.85,6.25 -2.01915,3.59938 -7.30789,10.06688 -12.5,15.28599 -7.24116,7.27884 -10.76639,9.95382 -18.03866,13.68793 -16.19243,8.31436 -34.0751,11.48287 -46.70124,8.27467 z m 73.2399,-0.0237 c -3.025,-0.7412 -6.97094,-1.97161 -8.76875,-2.73425 l -3.26876,-1.38662 3.92858,-3.15709 3.92858,-3.15709 8.28749,2.09572 c 14.61255,3.69521 26.862,0.95021 34.95902,-7.83401 6.36547,-6.90572 8.26297,-12.12599 7.71528,-21.2257 -0.73609,-12.22985 -7.78232,-23.92322 -20.24917,-33.603932 C 194.25448,88.928132 176.3497,82.573139 162.3791,82.55824 c -5.78889,-0.0062 -6.83144,0.294056 -8.77227,2.526211 -4.73249,5.442836 -12.18306,5.602664 -16.59779,0.356053 -8.92811,-10.61046 6.48011,-24.099925 16.09369,-14.089575 1.42874,1.487699 3.85068,2.070045 10.71422,2.57618 23.36137,1.722729 40.57637,9.233208 55.25221,24.105174 19.21155,19.468287 21.68683,46.376427 5.57345,60.587537 -11.79334,10.40108 -29.03752,14.37585 -45.19385,10.41715 z M 123.2516,136.50791 c -2.82507,-2.82507 -3.00996,-3.44549 -2.57823,-8.65164 0.37734,-4.55019 0.034,-6.38157 -1.81987,-9.70668 -1.25672,-2.2541 -3.73941,-8.37336 -5.5171,-13.59836 -2.79421,-8.212799 -3.29228,-11.218007 -3.67594,-22.179572 -0.54183,-15.480309 1.16274,-24.341058 6.87994,-35.763686 4.63659,-9.26361 12.65061,-17.314284 21.61452,-21.713376 5.24922,-2.576089 6.78083,-2.843362 16.29384,-2.843362 9.5546,0 10.97594,0.250761 15.7859,2.78504 13.68382,7.209737 23.1304,21.943538 25.68199,40.056134 0.666,4.727564 0.62744,4.824168 -1.64294,4.11647 -5.75399,-1.793564 -6.79993,-2.525933 -7.38683,-5.172274 -2.42843,-10.949662 -8.19752,-22.023377 -14.24833,-27.349513 -5.59382,-4.923877 -13.38457,-7.433653 -19.99713,-6.442039 -21.70208,3.254427 -34.51872,21.480135 -34.46202,49.006182 0.0248,12.034659 2.0411,21.232486 6.9601,31.749996 3.48382,7.44889 3.7575,7.75 7.04388,7.75 5.29505,0 9.26538,4.49938 9.26538,10.5 0,3.81039 -0.52977,5.18362 -2.92308,7.57692 -2.3933,2.39331 -3.76653,2.92308 -7.57692,2.92308 -3.85233,0 -5.17799,-0.52414 -7.69716,-3.04332 z"
     style="fill:#7549bb" />
  <path
     inkscape:connector-curvature="0"
     id="path3821"
     d="m 77.448763,202.44061 v -21.11063 l 10.75,0.36992 c 13.037067,0.44863 16.957607,2.1807 19.155087,8.46263 1.80777,5.16787 0.84259,8.97273 -3.24486,12.79166 l -3.19735,2.98729 5.26856,8.05385 c 2.89771,4.42962 5.26856,8.39182 5.26856,8.80488 0,0.41306 -2.18026,0.75102 -4.84501,0.75102 -5.50473,0 -6.20786,-0.58399 -11.015406,-9.149 -2.891587,-5.15158 -4.682878,-6.851 -7.221368,-6.851 -0.505017,0 -0.918213,3.6 -0.918213,8 v 8 h -5 -5 z m 18.777494,-2.44608 c 1.537992,-1.07726 2.222506,-2.5795 2.222506,-4.87756 0,-4.05717 -1.6857,-5.57977 -6.960781,-6.28731 l -4.039219,-0.54177 v 6.63167 6.63167 h 3.277494 c 1.802621,0 4.277621,-0.70052 5.5,-1.5567 z m 20.521053,21.59718 c -4.29058,-2.61611 -6.29933,-6.84141 -6.29481,-13.24082 0.006,-9.11029 5.64363,-14.80467 14.64739,-14.79592 7.45471,0.007 13.96455,6.86048 13.15535,13.84931 -0.30547,2.63821 -0.3387,2.6479 -10.06339,2.93325 l -9.75691,0.28629 1.5251,2.94922 c 1.9317,3.73551 5.51734,4.66314 10.48383,2.71225 3.68576,-1.44781 3.95454,-1.41655 5.93363,0.69009 l 2.07299,2.2066 -3.88702,2.18462 c -5.08374,2.85722 -13.3285,2.9614 -17.81616,0.22511 z M 130.1648,203.9173 c 0.57094,-1.73453 -2.57289,-4.36607 -5.21604,-4.36607 -2.65537,0 -5.5,2.3914 -5.5,4.62369 0,1.15584 1.13494,1.41449 5.1714,1.17857 2.84427,-0.16624 5.33936,-0.81253 5.54464,-1.43619 z m 15.40083,18.00324 c -7.01499,-4.9135 -6.77807,-20.55765 0.39681,-26.20141 2.9952,-2.35602 9.21716,-2.9175 12.55206,-1.13272 1.8334,0.98121 1.93426,0.63929 1.93426,-6.55749 v -7.59269 l 4.25,0.3075 4.25,0.3075 v 21 21 l -2.95069,0.33579 c -1.89744,0.21593 -3.38314,-0.25563 -4.16221,-1.32108 -1.1106,-1.51883 -1.46462,-1.52598 -4.24965,-0.0858 -3.92398,2.02917 -9.07489,2.00362 -12.02058,-0.0596 z m 12.66062,-5.92601 c 1.90351,-1.33327 2.22251,-2.47648 2.22251,-7.96482 0,-5.47971 -0.30325,-6.57041 -2.09314,-7.52833 -2.95208,-1.5799 -6.35969,-0.44648 -7.73542,2.57293 -1.86508,4.09339 -1.46035,10.18801 0.82856,12.47692 2.40692,2.40692 3.84018,2.50067 6.77749,0.4433 z m 18.9069,4.96836 c -3.07146,-3.07146 -3.9308,-7.72064 -3.49554,-18.91166 l 0.31115,-8 4.25,-0.3075 4.25,-0.3075 v 10.48607 c 0,8.19946 0.34267,10.82874 1.57143,12.0575 1.87878,1.87879 2.55604,1.9261 5.88152,0.41091 2.50258,-1.14025 2.54705,-1.35078 2.54705,-12.05749 v -10.89699 l 4.25,0.3075 4.25,0.3075 0.27673,14.75 0.27674,14.75 h -3.47705 c -2.18848,0 -3.81852,-0.61019 -4.39848,-1.64653 -0.85551,-1.52871 -1.08967,-1.52871 -3.2722,0 -3.71506,2.60213 -10.13471,2.14483 -13.22135,-0.94181 z m 26.31561,2.03347 c 0,-0.30518 1.81069,-3.22122 4.02375,-6.4801 2.21306,-3.25888 4.27488,-6.57967 4.58181,-7.37953 0.30694,-0.79986 -1.20038,-4.07131 -3.3496,-7.26989 -2.14922,-3.19859 -4.23759,-6.37811 -4.64083,-7.06561 -0.54582,-0.93059 0.53528,-1.25 4.23083,-1.25 4.8259,0 5.03736,0.12519 7.60117,4.5 1.45045,2.475 2.95899,4.5 3.35231,4.5 0.39332,0 1.93827,-2.025 3.43322,-4.5 2.58204,-4.27473 2.94566,-4.5 7.26378,-4.5 h 4.54569 l -4.52107,6.73932 c -2.48658,3.70663 -4.52106,7.19894 -4.52106,7.76068 0,0.56174 2.025,4.03992 4.5,7.72928 2.475,3.68936 4.5,6.97171 4.5,7.29411 0,0.32241 -2.1375,0.44904 -4.75,0.2814 -4.45537,-0.28588 -4.93608,-0.59828 -7.75,-5.03638 -1.65,-2.60237 -3.225,-4.73941 -3.5,-4.74898 -0.275,-0.01 -1.76346,2.23215 -3.30769,4.98159 -2.71113,4.82708 -2.96044,4.99898 -7.25,4.99898 -2.44327,0 -4.44231,-0.24969 -4.44231,-0.55487 z"
     style="fill:#5f5f5f" />
  <path
     inkscape:connector-curvature="0"
     id="path3819"
     d="m 82.238552,222.74324 -3.710212,-0.308 -0.289788,-19.94304 -0.289789,-19.94303 9.782119,0.001 c 14.514528,0.002 19.717878,2.97645 19.717878,11.27323 0,4.87512 -2.13572,9.01301 -5.42565,10.512 l -2.575644,1.17354 3.750644,4.99781 c 2.06286,2.7488 4.71288,6.69581 5.88895,8.77115 l 2.13829,3.77333 -5.36715,-0.34132 -5.36716,-0.34133 -3.176321,-5.65867 c -4.224631,-7.52625 -5.736181,-9.15868 -8.480501,-9.15868 -2.182867,0 -2.319908,0.40927 -2.595013,7.75 l -0.290442,7.75 z m 13.810507,-21.95732 c 1.487602,-0.9933 3.399704,-4.74413 3.399704,-6.66895 0,-3.10079 -3.764477,-5.56574 -8.5,-5.56574 h -4.5 v 6.5 6.5 l 4.25,-0.0153 c 2.3375,-0.008 4.745133,-0.34592 5.350296,-0.75 z m 22.470781,21.01376 c -4.94892,-2.52352 -7.33152,-6.31677 -7.82444,-12.45698 -0.34895,-4.34676 -0.004,-5.91634 1.93422,-8.79147 3.27062,-4.85253 8.21752,-7.24729 13.57671,-6.57237 7.53116,0.94845 11.24243,4.94922 11.24243,12.11942 v 3.45295 h -9.5 c -10.44261,0 -11.21103,0.55506 -7.42742,5.36514 2.30374,2.92873 5.34101,3.33797 10.61626,1.43041 2.83252,-1.02425 3.57833,-0.95695 4.9851,0.44982 4.76105,4.76105 -9.90358,8.92903 -17.60286,5.00308 z m 11.92892,-18.19175 c 0,-2.01909 -3.46487,-5.0567 -5.76796,-5.0567 -1.56902,0 -6.23204,4.45539 -6.23204,5.95455 0,0.61111 2.49275,1.04545 6,1.04545 5.27497,0 6,-0.23482 6,-1.9433 z m 16.4202,18.85117 c -5.66025,-2.8892 -7.89978,-15.9017 -3.90164,-22.67001 3.1897,-5.39973 9.66861,-7.36518 15.73144,-4.7723 1.57591,0.67396 1.75,0.0165 1.75,-6.60857 v -7.35699 h 4 4 v 21.0492 21.0492 l -3.5,-0.40861 c -2.12617,-0.24822 -3.5,-0.95444 -3.5,-1.7992 0,-1.81693 -0.93635,-1.75817 -3.09364,0.19416 -2.18849,1.98055 -8.72342,2.73332 -11.48616,1.32312 z m 11.8298,-6.29992 c 2.43119,-1.84553 2.57031,-15.07919 0.16821,-16.00096 -5.83622,-2.23957 -9.41821,1.10227 -9.41821,8.78678 0,7.44755 4.41084,10.88763 9.25,7.21418 z m 18.67308,4.46897 c -2.89412,-2.89411 -2.92308,-3.03778 -2.92308,-14.5 v -11.57692 h 3.96617 3.96617 l 0.28383,10.64351 c 0.31927,11.97257 1.23406,13.63754 6.48106,11.796 l 2.80277,-0.98368 0.28383,-10.72792 0.28383,-10.72791 h 3.96617 3.96617 v 14.32681 14.3268 l -3.25,-0.46495 c -1.7875,-0.25573 -3.52778,-0.89523 -3.8673,-1.42111 -0.36899,-0.57154 -1.85745,-0.31485 -3.70034,0.63815 -4.80037,2.48237 -8.89158,2.03892 -12.25928,-1.32878 z m 26.84652,1.42308 c 0.31828,-0.55 2.22196,-3.475 4.2304,-6.5 2.00844,-3.025 3.94469,-6.00272 4.30277,-6.61716 0.35809,-0.61445 -1.04404,-3.53945 -3.11583,-6.5 -5.87255,-8.39176 -5.81846,-7.88284 -0.83778,-7.88284 4.20634,0 4.63313,0.26266 7.30902,4.49821 1.563,2.47402 3.07622,4.49902 3.36271,4.5 0.28648,9.9e-4 1.62708,-2.02321 2.97911,-4.49821 2.33207,-4.26906 2.68192,-4.5 6.81689,-4.5 h 4.35867 l -4.67192,6.54711 c -4.33674,6.07738 -4.56861,6.70516 -3.23193,8.75 0.79199,1.21159 3.02649,4.68535 4.96555,7.71947 l 3.52556,5.51658 -4.92785,-0.51658 c -4.65981,-0.48848 -5.08357,-0.78381 -7.79052,-5.42931 l -2.86267,-4.91274 -3.11593,5.06403 c -2.88326,4.68589 -3.44297,5.09007 -7.49544,5.41274 -2.72791,0.2172 -4.16127,-0.0284 -3.80081,-0.6513 z"
     style="fill:#2f2f2f" />
</svg>
